<?xml version="1.0" encoding="UTF-8"?>
<svg id="Layer_4" data-name="Layer 4" xmlns="http://www.w3.org/2000/svg" viewBox="0 0 426.21 406.8">
  <defs>
    <style>
      .cls-1 {
        fill: #3850a3;
      }

      .cls-1, .cls-2 {
        stroke-width: 0px;
      }

      .cls-2 {
        fill: #f4f2f3;
      }
    </style>
  </defs>
  <path class="cls-1" d="m13.44,303.23c0-110.27,89.39-199.66,199.66-199.66s199.66,89.39,199.66,199.66"/>
  <g>
    <path class="cls-2" d="m107.06,171.43v5.55h-16.26c-2.87,0-4.14,1.55-4.14,3.76,0,1.93.99,3.76,4.7,3.76h7.43c8.65,0,10.67,4.79,10.67,9.35,0,5.36-2.87,9.31-10.1,9.31h-17.67v-5.55h17.86c3.01,0,4.37-1.65,4.37-3.95,0-2.07-1.08-3.95-4.98-3.95h-7.38c-8.46,0-10.43-4.75-10.43-9.16,0-5.26,2.82-9.12,9.87-9.12h16.07Z"/>
    <path class="cls-2" d="m131.5,178.34c5.87,0,8.37,2.82,8.37,7.61s-2.3,7.14-8.41,7.14h-11.8v1.79c0,1.97,1.08,3.43,3.81,3.43h15.18v4.84h-15.18c-6.2,0-8.65-3.48-8.65-8.18v-8.46c0-4.7,2.44-8.18,8.65-8.18h8.04Zm-11.84,10.86h11.66c2.68,0,3.67-1.13,3.67-2.96s-1.08-3.1-3.52-3.1h-7.99c-2.73,0-3.81,1.5-3.81,3.43v2.63Z"/>
    <path class="cls-2" d="m150.96,167.57v10.76h11c6.58,0,10.72,4.04,10.72,12.41s-4.14,12.41-10.72,12.41h-6.86c-5.97,0-9.12-3.48-9.12-10.62v-24.96h4.98Zm0,15.56v9.16c0,4.23,1.55,6.02,5.59,6.02h4.89c4.32,0,6.2-2.21,6.2-7.57s-1.88-7.61-6.2-7.61h-10.48Z"/>
    <path class="cls-2" d="m194.53,178.34c6.2,0,8.65,3.48,8.65,8.18v11.66c0,3.57-.94,4.98-5.12,4.98h-11.61c-5.87,0-8.32-2.87-8.32-7.57s2.26-7.14,8.37-7.14h11.8v-1.88c0-1.93-1.08-3.43-3.81-3.43h-14.85v-4.79h14.9Zm3.76,18.7v-4.65h-11.7c-2.63,0-3.57,1.08-3.57,2.91s.99,3.01,3.48,3.01h10.43c.99,0,1.36-.38,1.36-1.27Z"/>
    <path class="cls-2" d="m226.11,178.34c6.2,0,8.65,3.48,8.65,8.18v11.66c0,3.57-.94,4.98-5.12,4.98h-11.61c-5.87,0-8.32-2.87-8.32-7.57s2.26-7.14,8.37-7.14h11.8v-1.88c0-1.93-1.08-3.43-3.81-3.43h-14.85v-4.79h14.9Zm3.76,18.7v-4.65h-11.7c-2.63,0-3.57,1.08-3.57,2.91s.99,3.01,3.48,3.01h10.43c.99,0,1.36-.38,1.36-1.27Z"/>
    <path class="cls-2" d="m262.49,178.34v4.79h-13.72c-2.3,0-3.24.94-3.24,2.82,0,1.74.75,2.68,3.53,2.68h5.83c6.86,0,8.6,3.15,8.6,7,0,4.42-2.3,7.52-8.13,7.52h-14.43v-4.84h14.43c2.3,0,3.24-.8,3.24-2.73s-1.03-2.77-3.52-2.77h-5.88c-6.86,0-8.55-3.43-8.55-7.24,0-4.46,2.3-7.24,8.08-7.24h13.77Z"/>
    <path class="cls-2" d="m270.25,178.34v-5.87h5.03v5.87h6.86v4.79h-6.86v11.75c0,2.77.99,3.71,3.34,3.71h3.43v4.56h-4.46c-5.12,0-7.33-2.07-7.33-8.55v-11.47h-3.38v-4.79h3.38Z"/>
    <path class="cls-2" d="m292.01,168.98v5.78h-5.03v-5.78h5.03Zm-.05,9.35v24.81h-4.98v-24.81h4.98Z"/>
    <path class="cls-2" d="m314.99,178.34c6.2,0,8.65,3.48,8.65,8.18v11.66c0,3.57-.94,4.98-5.12,4.98h-11.61c-5.87,0-8.32-2.87-8.32-7.57s2.26-7.14,8.37-7.14h11.8v-1.88c0-1.93-1.08-3.43-3.81-3.43h-14.85v-4.79h14.9Zm3.76,18.7v-4.65h-11.7c-2.63,0-3.57,1.08-3.57,2.91s.99,3.01,3.48,3.01h10.43c.99,0,1.36-.38,1.36-1.27Z"/>
    <path class="cls-2" d="m344.41,178.34c8.41,0,12.5,3.99,12.5,10.86v13.96h-5.03v-13.96c0-3.9-2.26-6.06-7.47-6.06h-8.13c-.42,0-.61.24-.61.71v19.32h-4.98v-20.96c0-2.91.99-3.85,3.48-3.85h10.25Z"/>
    <path class="cls-2" d="m153.29,259.55h-6.11l11.14-28.2c1.17-2.96,3.34-4.09,6.67-4.09s5.45,1.13,6.58,4.09l10.72,28.2h-6.16l-9.63-25.52c-.28-.75-.8-1.08-1.55-1.08s-1.27.33-1.6,1.08l-10.06,25.52Z"/>
    <path class="cls-2" d="m190.23,234.74v14.85c0,2.91,2.16,5.12,6.11,5.12h4.04c3.95,0,6.06-2.21,6.06-5.12v-14.85h4.89v15.04c0,5.73-3.67,9.78-10.76,9.78h-4.61c-7.1,0-10.76-4.04-10.76-9.78v-15.04h5.03Z"/>
    <path class="cls-2" d="m223.32,223.97v10.76h11c6.58,0,10.71,4.04,10.71,12.41s-4.13,12.41-10.71,12.41h-6.86c-5.97,0-9.12-3.48-9.12-10.62v-24.96h4.98Zm0,15.56v9.16c0,4.23,1.55,6.02,5.59,6.02h4.89c4.32,0,6.2-2.21,6.2-7.57s-1.88-7.61-6.2-7.61h-10.48Z"/>
    <path class="cls-2" d="m256.03,225.38v5.78h-5.03v-5.78h5.03Zm-.05,9.35v24.81h-4.98v-24.81h4.98Z"/>
    <path class="cls-2" d="m276.85,234.74c8.41,0,12.5,3.99,12.5,10.86v13.96h-5.03v-13.96c0-3.9-2.26-6.06-7.47-6.06h-8.13c-.42,0-.61.23-.61.7v19.32h-4.98v-20.96c0-2.91.99-3.85,3.48-3.85h10.25Z"/>
  </g>
</svg>