<?xml version="1.0" encoding="UTF-8"?>
<svg id="Layer_3" data-name="Layer 3" xmlns="http://www.w3.org/2000/svg" viewBox="0 0 426.21 406.8">
  <defs>
    <style>
      .cls-1 {
        fill: #f6891f;
      }

      .cls-1, .cls-2 {
        stroke-width: 0px;
      }

      .cls-2 {
        fill: #f4f2f3;
      }
    </style>
  </defs>
  <polygon class="cls-1" points="213.11 383.35 420.9 23.44 5.31 23.44 213.11 383.35"/>
  <g>
    <path class="cls-2" d="m155.62,129.03v5.55h-15.88c-3.34,0-4.79,1.55-4.79,3.99,0,2.58,1.65,3.76,4.84,3.76h15.6v5.03h-15.74c-3.2,0-4.84,1.27-4.84,3.85s1.55,4,4.79,4h16.07v5.55h-16.07c-7.52,0-10.57-3.71-10.57-8.65,0-3.62,1.65-6.06,4.56-7.28-2.96-1.22-4.46-3.67-4.46-7.14,0-5.08,3.15-8.65,10.62-8.65h15.88Z"/>
    <path class="cls-2" d="m192.52,129.03c7.14,0,10.2,4.42,10.2,9.49,0,3.95-1.88,8.18-6.72,9.54l7.38,12.69h-6.16l-7.24-12.27h-8.27c-.52,0-.8.23-.8.8v11.47h-5.55v-12.55c0-3.57,1.5-5.03,4.98-5.03h12.36c3.15,0,4.42-2.16,4.42-4.42s-1.36-4.18-4.42-4.18h-17.39v-5.55h17.2Z"/>
    <path class="cls-2" d="m221.85,135.94c6.58,0,10.76,4.04,10.76,12.41s-4.18,12.41-10.76,12.41h-5.22c-6.63,0-10.76-4.04-10.76-12.41s4.14-12.41,10.76-12.41h5.22Zm-4.75,4.79c-4.32,0-6.2,2.26-6.2,7.61s1.88,7.57,6.2,7.57h4.28c4.28,0,6.2-2.21,6.2-7.57s-1.93-7.61-6.2-7.61h-4.28Z"/>
    <path class="cls-2" d="m253.38,135.94c6.58,0,10.76,4.04,10.76,12.41s-4.18,12.41-10.76,12.41h-5.22c-6.63,0-10.76-4.04-10.76-12.41s4.14-12.41,10.76-12.41h5.22Zm-4.75,4.79c-4.32,0-6.2,2.26-6.2,7.61s1.88,7.57,6.2,7.57h4.28c4.28,0,6.2-2.21,6.2-7.57s-1.93-7.61-6.2-7.61h-4.28Z"/>
    <path class="cls-2" d="m283.84,135.94c8.41,0,12.5,3.99,12.5,10.86v13.96h-5.03v-13.96c0-3.9-2.26-6.06-7.47-6.06h-8.13c-.42,0-.61.24-.61.71v19.32h-4.98v-20.96c0-2.91.99-3.85,3.48-3.85h10.25Z"/>
    <path class="cls-2" d="m157.72,185.43v13.44h3.05c5.45,0,6.34-.47,8.13-3.95l4.84-9.49h5.97l-4.98,9.87c-1.41,2.82-2.91,4.65-5.5,5.78,2.96.8,4.42,2.44,6.3,6.11l5.12,9.96h-6.2l-4.84-9.4c-1.74-3.38-2.87-3.85-8.84-3.85h-3.05v13.25h-5.55v-31.72h5.55Z"/>
    <path class="cls-2" d="m200.02,192.34c6.2,0,8.65,3.48,8.65,8.18v11.66c0,3.57-.94,4.98-5.12,4.98h-11.61c-5.87,0-8.32-2.87-8.32-7.57s2.26-7.14,8.37-7.14h11.8v-1.88c0-1.93-1.08-3.43-3.81-3.43h-14.85v-4.79h14.9Zm3.76,18.71v-4.65h-11.7c-2.63,0-3.57,1.08-3.57,2.91s.99,3.01,3.48,3.01h10.43c.99,0,1.36-.38,1.36-1.27Z"/>
    <path class="cls-2" d="m229.44,192.34c8.41,0,12.5,3.99,12.5,10.86v13.96h-5.03v-13.96c0-3.9-2.26-6.06-7.47-6.06h-8.13c-.42,0-.61.23-.61.7v19.32h-4.98v-20.96c0-2.91.99-3.85,3.48-3.85h10.25Z"/>
    <path class="cls-2" d="m265.39,192.34c5.92,0,9.12,3.48,9.12,10.62v14.29c0,7.05-2.44,9.82-9.4,9.82h-14.76v-4.79h14.19c3.71,0,4.93-1.46,4.93-5.03v-1.13h-10.95c-6.63,0-10.76-3.9-10.76-11.94s4.14-11.84,10.76-11.84h6.86Zm-6.39,19.27h10.48v-8.69c0-4.04-1.55-5.78-5.55-5.78h-4.93c-4.28,0-6.2,2.16-6.2,7.24s1.93,7.24,6.2,7.24Z"/>
  </g>
</svg>