<?xml version="1.0" encoding="UTF-8"?>
<svg id="Layer_1" data-name="Layer 1" xmlns="http://www.w3.org/2000/svg" viewBox="0 0 426.21 406.8">
  <defs>
    <style>
      .cls-1 {
        fill: #e61e25;
      }

      .cls-1, .cls-2 {
        stroke-width: 0px;
      }

      .cls-2 {
        fill: #f4f2f3;
      }
    </style>
  </defs>
  <circle class="cls-1" cx="213.11" cy="203.4" r="203.4"/>
  <g>
    <path class="cls-2" d="m91.07,183.63h-9.36l17.07-43.2c1.8-4.54,5.11-6.26,10.23-6.26s8.35,1.73,10.08,6.26l16.42,43.2h-9.43l-14.76-39.1c-.43-1.15-1.22-1.66-2.38-1.66s-1.94.5-2.45,1.66l-15.41,39.1Z"/>
    <path class="cls-2" d="m163.29,145.61c12.89,0,19.15,6.12,19.15,16.63v21.39h-7.7v-21.39c0-5.98-3.46-9.29-11.45-9.29h-12.46c-.65,0-.94.36-.94,1.08v29.59h-7.63v-32.11c0-4.46,1.51-5.9,5.33-5.9h15.7Z"/>
    <path class="cls-2" d="m194.53,145.61v-9h7.7v9h10.51v7.34h-10.51v18c0,4.25,1.51,5.69,5.11,5.69h5.26v6.98h-6.84c-7.85,0-11.23-3.17-11.23-13.1v-17.57h-5.18v-7.34h5.18Z"/>
    <path class="cls-2" d="m227.8,129.12v16.49h13.39c12.82,0,19.15,6.19,19.15,16.63v21.39h-7.71v-21.39c0-5.83-3.53-9.29-11.45-9.29h-13.39v30.67h-7.63v-54.51h7.63Z"/>
    <path class="cls-2" d="m295.84,145.61c9,0,12.82,4.32,12.82,11.67s-3.53,10.95-12.89,10.95h-18.07v2.74c0,3.02,1.66,5.26,5.83,5.26h23.26v7.42h-23.26c-9.5,0-13.25-5.33-13.25-12.53v-12.96c0-7.2,3.74-12.53,13.25-12.53h12.31Zm-18.15,16.63h17.86c4.1,0,5.62-1.73,5.62-4.54s-1.66-4.75-5.4-4.75h-12.24c-4.18,0-5.83,2.3-5.83,5.26v4.03Z"/>
    <path class="cls-2" d="m343.86,145.61v7.34h-13.39c-3.38,0-4.9,1.58-4.9,4.9v25.78h-7.63v-26.93c0-7.63,2.81-11.09,10.3-11.09h15.62Z"/>
    <path class="cls-2" d="m136.68,221.43v20.59h4.68c8.35,0,9.72-.72,12.46-6.05l7.42-14.54h9.14l-7.63,15.12c-2.16,4.32-4.46,7.13-8.42,8.86,4.54,1.22,6.77,3.74,9.65,9.36l7.85,15.27h-9.5l-7.42-14.4c-2.66-5.18-4.39-5.9-13.54-5.9h-4.68v20.31h-8.5v-48.6h8.5Z"/>
    <path class="cls-2" d="m186.43,217.68v8.86h-7.7v-8.86h7.7Zm-.07,14.33v38.02h-7.63v-38.02h7.63Z"/>
    <path class="cls-2" d="m204.94,215.52v54.51h-7.63v-54.51h7.63Z"/>
    <path class="cls-2" d="m240.65,232.01c9,0,12.82,4.32,12.82,11.67s-3.53,10.95-12.89,10.95h-18.07v2.74c0,3.02,1.66,5.26,5.83,5.26h23.26v7.42h-23.26c-9.5,0-13.25-5.33-13.25-12.53v-12.96c0-7.2,3.74-12.53,13.25-12.53h12.31Zm-18.15,16.63h17.86c4.1,0,5.62-1.73,5.62-4.54s-1.66-4.75-5.4-4.75h-12.24c-4.18,0-5.83,2.3-5.83,5.26v4.03Z"/>
    <path class="cls-2" d="m302.57,232.01l-22.9,53.29h-8.21l7.13-16.63c-4.32,0-5.83-1.37-7.13-4.68l-12.75-31.97h8.06l11.45,28.3c.5,1.37.86,1.58,2.3,1.58h1.01l12.89-29.88h8.14Z"/>
  </g>
</svg>