<?xml version="1.0" encoding="UTF-8"?>
<svg id="Layer_2" data-name="Layer 2" xmlns="http://www.w3.org/2000/svg" viewBox="0 0 426.21 406.8">
  <defs>
    <style>
      .cls-1 {
        fill: #6fbe44;
      }

      .cls-1, .cls-2 {
        stroke-width: 0px;
      }

      .cls-2 {
        fill: #f4f2f3;
      }
    </style>
  </defs>
  <rect class="cls-1" y="87.53" width="426.21" height="238.23"/>
  <g>
    <path class="cls-2" d="m38.13,165.48v5.55h-15.88c-3.34,0-4.79,1.55-4.79,3.99,0,2.58,1.65,3.76,4.84,3.76h15.6v5.03h-15.74c-3.2,0-4.84,1.27-4.84,3.85s1.55,4,4.79,4h16.07v5.55h-16.07c-7.52,0-10.57-3.71-10.57-8.65,0-3.62,1.65-6.06,4.56-7.28-2.96-1.22-4.46-3.67-4.46-7.14,0-5.08,3.15-8.65,10.62-8.65h15.88Z"/>
    <path class="cls-2" d="m74.08,172.39c8.41,0,12.55,3.99,12.55,10.86v13.96h-5.03v-13.96c0-3.9-2.26-6.06-7.47-6.06h-5.83v20.02h-5.03v-20.02h-12.6c-.42,0-.61.24-.61.71v19.32h-4.98v-20.96c0-2.91.99-3.85,3.48-3.85h25.52Z"/>
    <path class="cls-2" d="m98.62,163.04v5.78h-5.03v-5.78h5.03Zm-.05,9.35v24.81h-4.98v-24.81h4.98Z"/>
    <path class="cls-2" d="m140.16,165.48v5.55h-9.26v26.18h-5.59v-26.18h-9.26v-5.55h24.11Z"/>
    <path class="cls-2" d="m160.04,172.39c6.2,0,8.65,3.48,8.65,8.18v11.66c0,3.57-.94,4.98-5.12,4.98h-11.61c-5.87,0-8.32-2.87-8.32-7.57s2.26-7.14,8.37-7.14h11.8v-1.88c0-1.93-1.08-3.43-3.81-3.43h-14.85v-4.79h14.9Zm3.76,18.7v-4.65h-11.7c-2.63,0-3.57,1.08-3.57,2.91s.99,3.01,3.48,3.01h10.43c.99,0,1.36-.38,1.36-1.27Z"/>
    <path class="cls-2" d="m180.72,161.63v21.05h2.3c3.95,0,4.75-.19,6.2-2.82l4.14-7.47h5.4l-4.32,7.8c-1.22,2.21-2.4,3.57-4.42,4.42,2.35.66,3.57,2.21,5.08,4.79l4.46,7.8h-5.59l-4.14-7.33c-1.46-2.58-2.44-3.01-6.81-3.01h-2.3v10.34h-4.98v-35.58h4.98Z"/>
    <path class="cls-2" d="m218.93,172.39c6.2,0,8.65,3.48,8.65,8.18v11.66c0,3.57-.94,4.98-5.12,4.98h-11.61c-5.87,0-8.32-2.87-8.32-7.57s2.26-7.14,8.37-7.14h11.8v-1.88c0-1.93-1.08-3.43-3.81-3.43h-14.85v-4.79h14.9Zm3.76,18.7v-4.65h-11.7c-2.63,0-3.57,1.08-3.57,2.91s.99,3.01,3.48,3.01h10.43c.99,0,1.36-.38,1.36-1.27Z"/>
    <path class="cls-2" d="m239.61,161.63v10.76h8.74c8.37,0,12.5,4.04,12.5,10.86v13.96h-5.03v-13.96c0-3.81-2.3-6.06-7.47-6.06h-8.74v20.02h-4.98v-35.58h4.98Z"/>
    <path class="cls-2" d="m283.75,172.39c6.2,0,8.65,3.48,8.65,8.18v11.66c0,3.57-.94,4.98-5.12,4.98h-11.61c-5.87,0-8.32-2.87-8.32-7.57s2.26-7.14,8.37-7.14h11.8v-1.88c0-1.93-1.08-3.43-3.81-3.43h-14.85v-4.79h14.9Zm3.76,18.7v-4.65h-11.7c-2.63,0-3.57,1.08-3.57,2.91s.99,3.01,3.48,3.01h10.43c.99,0,1.36-.38,1.36-1.27Z"/>
    <path class="cls-2" d="m320.12,172.39v4.79h-13.72c-2.3,0-3.24.94-3.24,2.82,0,1.74.75,2.68,3.53,2.68h5.83c6.86,0,8.6,3.15,8.6,7,0,4.42-2.3,7.52-8.13,7.52h-14.43v-4.84h14.43c2.3,0,3.24-.8,3.24-2.73s-1.03-2.77-3.52-2.77h-5.88c-6.86,0-8.55-3.43-8.55-7.24,0-4.46,2.3-7.24,8.08-7.24h13.77Z"/>
    <path class="cls-2" d="m331.97,161.63v10.76h8.74c8.37,0,12.5,4.04,12.5,10.86v13.96h-5.03v-13.96c0-3.81-2.3-6.06-7.47-6.06h-8.74v20.02h-4.98v-35.58h4.98Z"/>
    <path class="cls-2" d="m365.24,163.04v5.78h-5.03v-5.78h5.03Zm-.05,9.35v24.81h-4.98v-24.81h4.98Z"/>
    <path class="cls-2" d="m401.1,161.63c5.4,0,7.9,3.62,7.9,8.04,0,3.57-1.69,5.97-5.97,8.08l-2.91,1.46,5.59,6.44,4.14-5.55h5.88l-6.86,9.12,7,7.99h-6.34l-3.67-4.18c-3.24,3.67-5.5,4.18-8.79,4.18h-5.36c-4.56,0-8.37-2.68-8.37-8.84,0-4.14,1.74-6.39,8.32-9.45l1.32-.61-1.64-1.93c-1.6-1.79-2.68-3.9-2.68-6.72,0-4.42,2.82-8.04,8.04-8.04h4.42Zm1.64,27.82l-7.1-8.08-1.5.75c-4.42,2.21-5.55,3.29-5.55,5.55,0,2.82,1.6,4.7,4.18,4.7h4.32c2.16,0,3.62-.61,5.64-2.91Zm-6.86-15.13l1.6,1.83,2.91-1.41c2.4-1.13,3.62-2.3,3.62-4.56,0-2.07-.99-3.85-3.57-3.85h-2.82c-2.54,0-3.62,1.69-3.62,3.85,0,1.69.66,2.77,1.88,4.14Z"/>
    <path class="cls-2" d="m41.84,253.61h-5.92l9.82-26.41c1.22-3.62,3.24-5.88,7.47-5.88,4.7,0,7.05,2.77,7.05,6.91v18.75c0,1.08.66,1.79,1.6,1.79.85,0,1.5-.52,1.79-1.32l7.71-20.26c1.22-3.62,3.24-5.88,7.47-5.88,4.7,0,7.05,2.77,7.05,6.91v25.38h-5.59v-25.1c0-1.13-.66-1.83-1.6-1.83-.8,0-1.46.56-1.74,1.36l-7.71,20.26c-1.22,3.62-3.29,5.88-7.52,5.88-4.65,0-7-2.77-7-6.96v-18.71c0-1.13-.71-1.83-1.65-1.83-.85,0-1.41.56-1.74,1.36l-9.49,25.57Z"/>
    <path class="cls-2" d="m98.29,219.44v5.78h-5.03v-5.78h5.03Zm-.05,9.35v24.81h-4.98v-24.81h4.98Z"/>
    <path class="cls-2" d="m127.75,228.79v4.79h-12.31c-4.32,0-6.2,2.26-6.2,7.61s1.88,7.57,6.2,7.57h12.31v4.84h-12.78c-6.63,0-10.76-4.04-10.76-12.41s4.14-12.41,10.76-12.41h12.78Z"/>
    <path class="cls-2" d="m138.66,218.03v10.76h8.74c8.37,0,12.5,4.04,12.5,10.86v13.96h-5.03v-13.96c0-3.81-2.3-6.06-7.47-6.06h-8.74v20.02h-4.98v-35.58h4.98Z"/>
    <path class="cls-2" d="m183.07,228.79c5.87,0,8.37,2.82,8.37,7.61s-2.3,7.14-8.41,7.14h-11.8v1.79c0,1.97,1.08,3.43,3.81,3.43h15.18v4.84h-15.18c-6.2,0-8.65-3.48-8.65-8.18v-8.46c0-4.7,2.44-8.18,8.65-8.18h8.04Zm-11.84,10.86h11.66c2.68,0,3.67-1.13,3.67-2.96s-1.08-3.1-3.52-3.1h-7.99c-2.73,0-3.81,1.5-3.81,3.43v2.63Z"/>
    <path class="cls-2" d="m202.53,218.03v35.58h-4.98v-35.58h4.98Z"/>
    <path class="cls-2" d="m214.66,218.03v35.58h-4.98v-35.58h4.98Z"/>
    <path class="cls-2" d="m237.97,228.79c5.87,0,8.37,2.82,8.37,7.61s-2.3,7.14-8.41,7.14h-11.8v1.79c0,1.97,1.08,3.43,3.81,3.43h15.18v4.84h-15.18c-6.2,0-8.65-3.48-8.65-8.18v-8.46c0-4.7,2.44-8.18,8.65-8.18h8.04Zm-11.84,10.86h11.66c2.68,0,3.67-1.13,3.67-2.96s-1.08-3.1-3.53-3.1h-7.99c-2.73,0-3.81,1.5-3.81,3.43v2.63Z"/>
    <path class="cls-2" d="m270.82,221.88v13.44h3.05c5.45,0,6.34-.47,8.13-3.95l4.84-9.49h5.97l-4.98,9.87c-1.41,2.82-2.91,4.65-5.5,5.78,2.96.8,4.42,2.44,6.3,6.11l5.12,9.96h-6.2l-4.84-9.4c-1.74-3.38-2.87-3.85-8.84-3.85h-3.05v13.25h-5.55v-31.72h5.55Z"/>
    <path class="cls-2" d="m301.84,228.79v14.85c0,2.91,2.16,5.12,6.11,5.12h4.04c3.95,0,6.06-2.21,6.06-5.12v-14.85h4.89v15.04c0,5.73-3.67,9.78-10.76,9.78h-4.61c-7.1,0-10.76-4.04-10.76-9.78v-15.04h5.03Z"/>
    <path class="cls-2" d="m345.83,228.79c6.2,0,8.65,3.48,8.65,8.18v11.66c0,3.57-.94,4.98-5.12,4.98h-11.61c-5.87,0-8.32-2.87-8.32-7.57s2.26-7.14,8.37-7.14h11.8v-1.88c0-1.93-1.08-3.43-3.81-3.43h-14.85v-4.79h14.9Zm3.76,18.71v-4.65h-11.7c-2.63,0-3.57,1.08-3.57,2.91s.99,3.01,3.48,3.01h10.43c.99,0,1.36-.38,1.36-1.27Z"/>
    <path class="cls-2" d="m375.25,228.79c8.41,0,12.5,4,12.5,10.86v13.96h-5.03v-13.96c0-3.9-2.26-6.06-7.47-6.06h-8.13c-.42,0-.61.24-.61.71v19.32h-4.98v-20.96c0-2.91.99-3.85,3.48-3.85h10.25Z"/>
  </g>
</svg>